<svg class="landing__logo" viewBox="0 0 148 44" xmlns="http://www.w3.org/2000/svg" xml:space="preserve" style="fill-rule:evenodd;clip-rule:evenodd;stroke-linejoin:round;stroke-miterlimit:2"><path d="M239.965 111.311c-65.424.013-114.722 52.706-116.631 119.205-.064 2.208-1.848 4.008-4.058 4.008h-14.325c-2.209 0-4.005-1.8-3.95-4.009C102.938 153.059 160.858 89 239.988 89h.046c79.894.331 138.464 65.315 138.789 144.196v87.28a4 4 0 0 1-4 4h-16.747a4 4 0 0 0-4 4v85.613a4 4 0 0 1-4 4h-41.471c-44.061 0-79.78-35.696-79.78-79.729v-49.996a4 4 0 0 1 4-4h14.326a4 4 0 0 1 4 4v49.996c0 31.711 25.723 57.418 57.454 57.418h19.145a4 4 0 0 0 4-4v-85.613a4 4 0 0 1 4.001-4h16.747a4 4 0 0 0 4-4v-64.901c-.292-67.832-50.103-121.665-116.533-121.953Z" style="fill:#3db45f" transform="matrix(.13329 0 0 .13329 -13.462 -11.862)"/><path d="M33.645 34.919c2.171.379 4.704-.438 6.622-2.357 1.918-1.918 2.735-4.45 2.357-6.621-2.171-.379-4.704.438-6.622 2.356-1.918 1.918-2.736 4.451-2.357 6.622Zm-.707 0c-2.171.379-4.704-.438-6.622-2.357-1.918-1.918-2.735-4.45-2.356-6.621 2.171-.379 4.703.438 6.621 2.356 1.919 1.918 2.736 4.451 2.357 6.622Zm.405-12.209c1.373.961 2.405 2.556 2.823 4.454-.941.888-2.823 3.467-2.823 4.643 0-1.141-1.883-3.736-2.825-4.637.418-1.901 1.451-3.498 2.825-4.46Z" style="fill:#3db45f;fill-rule:nonzero" transform="matrix(1 0 0 1 -14.805 -12.072)"/><path d="M946.757 202.716c16.288 2.842 35.289-3.288 49.681-17.68 14.392-14.392 20.522-33.392 17.682-49.68-16.29-2.842-35.291 3.288-49.683 17.68-14.391 14.392-20.522 33.392-17.68 49.68Z" style="fill:#3db45f;fill-rule:nonzero" transform="matrix(.13329 0 0 .13329 -11.575 -11.862)"/><path d="M457.438 322.567c-15.321 0-27.72-4.566-37.196-13.697-9.475-9.193-14.213-21.131-14.213-35.815v-2.591c0-10.242 1.876-19.28 5.63-27.116 3.815-7.835 9.353-13.882 16.613-18.139 7.261-4.318 15.875-6.478 25.843-6.478 14.029 0 25.105 4.381 33.227 13.142 8.122 8.699 12.183 20.853 12.183 36.462v12.124h-61.838c1.107 5.614 3.538 10.025 7.291 13.234 3.753 3.208 8.614 4.812 14.583 4.812 9.845 0 17.536-3.455 23.074-10.365l14.214 16.843c-3.877 5.368-9.384 9.656-16.521 12.864-7.076 3.146-14.706 4.72-22.89 4.72Zm-3.507-79.774c-9.107 0-14.522 6.046-16.244 18.139h31.38v-2.406c.123-4.998-1.138-8.854-3.784-11.569-2.646-2.776-6.43-4.164-11.352-4.164ZM550.658 283.605l15.783-63.023h32.765l-32.581 100.134h-31.75l-32.581-100.134h32.858l15.506 63.023ZM655.507 322.567c-15.321 0-27.72-4.566-37.196-13.697-9.475-9.193-14.213-21.131-14.213-35.815v-2.591c0-10.242 1.876-19.28 5.63-27.116 3.815-7.835 9.353-13.882 16.613-18.139 7.261-4.318 15.875-6.478 25.843-6.478 14.03 0 25.105 4.381 33.227 13.142 8.122 8.699 12.183 20.853 12.183 36.462v12.124h-61.838c1.107 5.614 3.538 10.025 7.291 13.234 3.753 3.208 8.614 4.812 14.583 4.812 9.845 0 17.536-3.455 23.074-10.365l14.214 16.843c-3.877 5.368-9.384 9.656-16.521 12.864-7.076 3.146-14.706 4.72-22.89 4.72ZM652 242.793c-9.107 0-14.522 6.046-16.244 18.139h31.38v-2.406c.124-4.998-1.138-8.854-3.784-11.569-2.646-2.776-6.43-4.164-11.352-4.164ZM770.601 248.808l-10.245-.74c-9.783 0-16.059 3.085-18.828 9.254v63.394h-31.104V220.582h29.166l1.015 12.864c5.23-9.81 12.521-14.715 21.874-14.715 3.323 0 6.215.37 8.676 1.111l-.554 28.966ZM811.212 220.582l1.015 11.753c7.076-9.069 16.583-13.604 28.52-13.604 12.614 0 21.136 5.029 25.566 15.085 6.769-10.056 16.552-15.085 29.35-15.085 20.244 0 30.643 12.278 31.197 36.833v65.152h-31.197v-63.208c0-5.121-.861-8.854-2.584-11.198-1.723-2.345-4.861-3.517-9.414-3.517-6.153 0-10.737 2.745-13.752 8.236l.092 1.296v68.391h-31.196v-63.023c0-5.245-.831-9.039-2.492-11.383-1.662-2.345-4.831-3.517-9.507-3.517-5.969 0-10.522 2.745-13.66 8.236v69.687h-31.104V220.582h29.166ZM946.242 220.582h31.196v100.134h-31.196zM1025.25 220.582l1.01 11.753c6.9-9.069 16.4-13.604 28.52-13.604 10.4 0 18.15 3.116 23.26 9.347 5.17 6.232 7.85 15.61 8.03 28.134v64.504h-31.19v-63.208c0-5.06-1.02-8.761-3.05-11.106-2.03-2.406-5.72-3.609-11.08-3.609-6.09 0-10.61 2.406-13.56 7.218v70.705h-31.108V220.582h29.168ZM1099.45 269.909c0-15.856 3.42-28.35 10.25-37.481s16.37-13.697 28.61-13.697c8.92 0 16.43 3.517 22.52 10.55v-50.714h31.2v142.149h-27.97l-1.57-10.735c-6.4 8.39-14.52 12.586-24.36 12.586-11.88 0-21.29-4.566-28.25-13.697-6.95-9.131-10.43-22.118-10.43-38.961Zm31.11 1.943c0 17.769 5.17 26.653 15.5 26.653 6.9 0 11.82-2.9 14.77-8.699v-38.129c-2.83-5.923-7.69-8.884-14.58-8.884-9.6 0-14.8 7.774-15.6 23.321l-.09 5.738Z" style="fill:#fff;fill-rule:nonzero" transform="matrix(.13329 0 0 .13329 -11.575 -11.862)"/><g><path d="M464.621 417.537h-12.834l-32.924-53.169v53.169h-12.834v-74.941h12.834l33.025 53.375v-53.375h12.733v74.941ZM567.063 342.596v50.081c0 7.961-2.52 14.275-7.559 18.941-5.005 4.633-11.684 6.949-20.038 6.949-8.455 0-15.168-2.282-20.14-6.846-4.971-4.598-7.457-10.963-7.457-19.095v-50.03h12.784v50.132c0 5.01 1.251 8.836 3.754 11.478 2.503 2.643 6.189 3.964 11.059 3.964 9.875 0 14.813-5.285 14.813-15.853v-49.721h12.784ZM667.425 353.096h-23.032v64.441H631.66v-64.441h-22.828v-10.5h58.593v10.5ZM737.551 388.662h-14.305v28.875h-12.835v-74.941h25.974c8.522 0 15.1 1.939 19.733 5.816 4.634 3.878 6.95 9.488 6.95 16.831 0 5.01-1.2 9.213-3.601 12.61-2.368 3.363-5.682 5.954-9.943 7.773l16.588 31.242v.669h-13.748l-14.813-28.875Zm-14.305-10.448h13.189c4.329 0 7.711-1.098 10.146-3.294 2.435-2.231 3.653-5.268 3.653-9.111 0-4.014-1.133-7.12-3.399-9.316-2.232-2.196-5.58-3.328-10.045-3.397h-13.544v25.118ZM809.251 342.596h12.784v74.941h-12.784zM922.904 353.096h-23.032v64.441h-12.733v-64.441h-22.828v-10.5h58.593v10.5ZM966.651 342.596h12.784v74.941h-12.784zM1087.41 382.023c0 7.343-1.26 13.794-3.76 19.353-2.5 5.524-6.09 9.779-10.75 12.764-4.64 2.951-9.98 4.427-16.03 4.427-5.99 0-11.33-1.476-16.03-4.427-4.67-2.985-8.29-7.223-10.86-12.713-2.54-5.49-3.82-11.821-3.86-18.993v-4.22c0-7.309 1.27-13.76 3.81-19.353 2.57-5.593 6.17-9.865 10.8-12.816 4.67-2.986 10.02-4.478 16.04-4.478 6.01 0 11.34 1.475 15.97 4.426 4.67 2.917 8.27 7.137 10.81 12.662 2.54 5.49 3.82 11.89 3.86 19.198v4.17Zm-12.84-3.912c0-8.304-1.55-14.669-4.67-19.096-3.07-4.426-7.45-6.639-13.13-6.639-5.55 0-9.9 2.213-13.04 6.639-3.11 4.392-4.7 10.62-4.77 18.684v4.324c0 8.235 1.57 14.6 4.72 19.095 3.18 4.495 7.57 6.743 13.19 6.743 5.68 0 10.04-2.196 13.08-6.588 3.08-4.393 4.62-10.809 4.62-19.25v-3.912ZM1192.03 417.537h-12.84l-32.92-53.169v53.169h-12.83v-74.941h12.83l33.03 53.375v-53.375h12.73v74.941Z" style="fill:#f3f8f6;fill-rule:nonzero" transform="matrix(.13329 0 0 .13329 -11.575 -11.862)"/></g></svg>